Coordinates
version=1
nRows=9
nColumns=24
inDegrees=yes

Units are S.I. units (second, meters, Newtons, ...)
Angles are in degrees.

endheader
time	pelvis_tilt	pelvis_list	pelvis_rotation	pelvis_tx	pelvis_ty	pelvis_tz	hip_flexion_r	hip_adduction_r	hip_rotation_r	knee_angle_r	ankle_angle_r	subtalar_angle_r	mtp_angle_r	hip_flexion_l	hip_adduction_l	hip_rotation_l	knee_angle_l	ankle_angle_l	subtalar_angle_l	mtp_angle_l	lumbar_extension	lumbar_bending	lumbar_rotation
      4.07000000	     -2.57475608	      1.58375166	     -6.58677994	      0.38102199	      0.70631302	     -0.45125914	     20.24585441	      2.40937751	      0.46409159	    -65.53670026	      7.06312635	      6.08967517	      0.00000000	      3.33252343	      5.85861937	     24.12125121	     -2.11173895	     -0.68695829	    -28.49533482	      0.00000000	    -13.33543038	     -4.99060057	     -3.48652543
      4.08000000	     -2.67377107	      1.15161947	     -5.91145736	      0.39100289	      0.70710514	     -0.45173141	     21.81973522	      2.81128060	     -0.57250739	    -64.67018496	      8.93538216	      4.38603866	      0.00000000	      2.06767876	      5.31422327	     24.72648028	     -1.24093264	     -0.57732551	    -28.58056643	      0.00000000	    -13.53255530	     -4.33107719	     -4.12789703
      4.09000000	     -2.75997915	      0.75117166	     -5.23369496	      0.40083912	      0.70767375	     -0.45218713	     23.31115583	      3.12465732	     -1.61936066	    -63.49279196	     10.44280454	      2.57953170	      0.00000000	      0.88464103	      4.81556433	     25.27532016	     -0.49351612	     -0.42382820	    -28.70086914	      0.00000000	    -13.78066092	     -3.73044928	     -4.72077399
      4.10000000	     -2.69253407	      0.37936393	     -4.43792730	      0.41052245	      0.70819249	     -0.45279757	     24.52869753	      3.30026136	     -2.74344480	    -61.98755631	     11.70798872	      0.90545505	      0.00000000	     -0.38406600	      4.36001156	     26.07971052	      0.16239162	     -0.42282709	    -29.10622429	      0.00000000	    -14.27540032	     -3.15302222	     -5.41911381
      4.11000000	     -2.82843064	      0.09657909	     -3.89006298	      0.42009381	      0.70820034	     -0.45302227	     25.93074221	      3.50256511	     -3.59298541	    -60.23434905	     12.52190059	     -0.87963841	      0.00000000	     -1.33802957	      4.00719848	     26.38925131	      0.66587108	     -0.09074420	    -29.21767522	      0.00000000	    -14.48661973	     -2.74029069	     -5.79068999
      4.12000000	     -2.90557313	     -0.12883596	     -3.22837669	      0.42958785	      0.70807014	     -0.45337413	     27.13446582	      3.57487888	     -4.46774346	    -58.15985381	     13.17282323	     -2.33985594	      0.00000000	     -2.25792996	      3.73540282	     26.88029955	      1.01418125	      0.28093666	    -29.35603340	      0.00000000	    -14.79887460	     -2.38013619	     -6.29754177
      4.13000000	     -2.81228469	     -0.29573916	     -2.52447757	      0.43903388	      0.70794659	     -0.45375824	     28.00607887	      3.54910568	     -5.28702926	    -55.76321799	     13.73542217	     -3.36114354	      0.00000000	     -3.31327456	      3.52299631	     27.56907820	      1.28741903	      0.53149354	    -29.70073890	      0.00000000	    -15.34573374	     -2.09679033	     -6.83092348
      4.14000000	     -2.83257946	     -0.38556418	     -1.96094821	      0.44850657	      0.70747812	     -0.45392587	     28.87954279	      3.53469631	     -5.87578443	    -53.07672848	     14.05938538	     -4.17605031	      0.00000000	     -4.20037147	      3.40527049	     28.05881018	      1.45902676	      0.88832216	    -30.00765989	      0.00000000	    -15.71362192	     -1.93209425	     -7.23940593
      4.15000000	     -2.94785187	     -0.42179762	     -1.46641567	      0.45804050	      0.70671946	     -0.45400678	     29.69468842	      3.51627670	     -6.28444772	    -50.07064057	     14.28931925	     -4.62082996	      0.00000000	     -4.94398867	      3.35952921	     28.45860652	      1.52904590	      1.35626275	    -30.23404759	      0.00000000	    -15.93821175	     -1.82948157	     -7.58200867
